<?xml version="1.0" encoding="UTF-8"?>
<svg width="1254" height="1254" viewBox="0 0 1254 1254" fill="none" xmlns="http://www.w3.org/2000/svg">
  <title>Geometric Flame Logo - traced from selected mark</title>
  <desc>SVG trace of the selected geometric flame logo, preserving the generated silhouette more closely.</desc>
  <g id="logo-mark">
    <path id="teal-shape-1" d="M 518 308 L 369 514 L 334 567 L 307 613 L 280 670 L 262 725 L 256 754 L 252 787 L 252 839 L 256 869 L 261 892 L 268 915 L 280 945 L 303 987 L 323 1015 L 338 1033 L 383 1076 L 429 1108 L 467 1128 L 496 1140 L 532 1151 L 549 1154 L 512 1117 L 487 1087 L 464 1054 L 441 1011 L 430 984 L 419 945 L 414 915 L 412 878 L 414 845 L 419 816 L 430 779 L 443 747 L 464 706 L 496 653 L 597 506 L 569 461 L 542 405 L 532 376 L 526 353 Z" fill="#087785"/>
    <path id="orange-shape-1" d="M 644 71 L 632 85 L 619 104 L 601 137 L 586 177 L 579 205 L 574 243 L 574 282 L 578 316 L 585 348 L 597 385 L 608 412 L 639 472 L 676 530 L 752 639 L 775 675 L 803 724 L 817 753 L 832 794 L 840 829 L 843 853 L 844 886 L 839 932 L 830 969 L 817 1004 L 799 1040 L 778 1073 L 748 1111 L 708 1152 L 712 1152 L 744 1144 L 781 1130 L 810 1116 L 837 1100 L 865 1080 L 886 1062 L 911 1037 L 931 1013 L 960 969 L 974 941 L 987 907 L 995 877 L 1000 846 L 1002 816 L 1001 785 L 993 731 L 978 680 L 964 646 L 937 594 L 916 560 L 880 507 L 732 312 L 699 261 L 686 237 L 667 195 L 655 159 L 646 116 Z" fill="#FF7900"/>
    <path id="orange-shape-2" d="M 627 811 L 529 911 L 628 1010 L 726 911 Z" fill="#FF7900"/>
  </g>
</svg>